<mxfile host="app.diagrams.net" modified="2021-03-18T03:33:03.536Z" agent="5.0 (Windows NT 10.0; Win64; x64) AppleWebKit/537.36 (KHTML, like Gecko) Chrome/89.0.4389.82 Safari/537.36" etag="9EwtIO1khWZa6sKAjDsN" version="14.4.9" type="github">
  <diagram id="lm0JRqx36X19rVup93aN" name="Page-1">
    <mxGraphModel dx="1038" dy="624" grid="1" gridSize="10" guides="1" tooltips="1" connect="1" arrows="1" fold="1" page="1" pageScale="1" pageWidth="827" pageHeight="1169" math="0" shadow="0">
      <root>
        <mxCell id="0" />
        <mxCell id="1" parent="0" />
        <mxCell id="6kS1YuTWA6uwa1GxKUVs-3" value="" style="edgeStyle=orthogonalEdgeStyle;rounded=0;orthogonalLoop=1;jettySize=auto;html=1;" edge="1" parent="1" source="6kS1YuTWA6uwa1GxKUVs-1" target="6kS1YuTWA6uwa1GxKUVs-2">
          <mxGeometry relative="1" as="geometry" />
        </mxCell>
        <mxCell id="6kS1YuTWA6uwa1GxKUVs-1" value="上传" style="rounded=0;whiteSpace=wrap;html=1;" vertex="1" parent="1">
          <mxGeometry x="140" y="190" width="120" height="60" as="geometry" />
        </mxCell>
        <mxCell id="6kS1YuTWA6uwa1GxKUVs-5" value="" style="edgeStyle=orthogonalEdgeStyle;rounded=0;orthogonalLoop=1;jettySize=auto;html=1;" edge="1" parent="1" source="6kS1YuTWA6uwa1GxKUVs-2" target="6kS1YuTWA6uwa1GxKUVs-4">
          <mxGeometry relative="1" as="geometry" />
        </mxCell>
        <mxCell id="6kS1YuTWA6uwa1GxKUVs-2" value="压缩" style="rounded=0;whiteSpace=wrap;html=1;" vertex="1" parent="1">
          <mxGeometry x="340" y="190" width="120" height="60" as="geometry" />
        </mxCell>
        <mxCell id="6kS1YuTWA6uwa1GxKUVs-4" value="上传" style="rounded=0;whiteSpace=wrap;html=1;" vertex="1" parent="1">
          <mxGeometry x="660" y="190" width="120" height="60" as="geometry" />
        </mxCell>
        <mxCell id="6kS1YuTWA6uwa1GxKUVs-6" value="方案一：" style="text;html=1;strokeColor=none;fillColor=none;align=center;verticalAlign=middle;whiteSpace=wrap;rounded=0;" vertex="1" parent="1">
          <mxGeometry x="20" y="150" width="140" height="30" as="geometry" />
        </mxCell>
        <mxCell id="6kS1YuTWA6uwa1GxKUVs-7" value="保存上传 InputStream" style="text;html=1;align=center;verticalAlign=middle;resizable=0;points=[];autosize=1;" vertex="1" parent="1">
          <mxGeometry x="240" y="140" width="130" height="20" as="geometry" />
        </mxCell>
        <mxCell id="6kS1YuTWA6uwa1GxKUVs-8" value="压缩结果输出到OutputStream 将OutputStream 转换成 InputStream" style="text;html=1;align=center;verticalAlign=middle;resizable=0;points=[];autosize=1;" vertex="1" parent="1">
          <mxGeometry x="380" y="140" width="370" height="20" as="geometry" />
        </mxCell>
      </root>
    </mxGraphModel>
  </diagram>
</mxfile>
